<mxfile host="app.diagrams.net" modified="2023-01-11T09:07:35.518Z" agent="5.0 (Macintosh; Intel Mac OS X 10_15_7) AppleWebKit/537.36 (KHTML, like Gecko) Chrome/108.0.0.0 Safari/537.36" etag="SEgzOMVvOEeHpFJRvXwk" version="20.8.3" type="github">
  <diagram id="GOwV3BTlTZxrZQk5q-vH" name="第 1 页">
    <mxGraphModel dx="954" dy="510" grid="1" gridSize="10" guides="1" tooltips="1" connect="1" arrows="1" fold="1" page="1" pageScale="1" pageWidth="827" pageHeight="1169" math="0" shadow="0">
      <root>
        <mxCell id="0" />
        <mxCell id="1" parent="0" />
        <mxCell id="oe8eYKHcRqLVJrgu-Rlg-1" value="" style="rounded=0;whiteSpace=wrap;html=1;" parent="1" vertex="1">
          <mxGeometry x="90" y="10" width="680" height="540" as="geometry" />
        </mxCell>
        <mxCell id="oe8eYKHcRqLVJrgu-Rlg-2" value="福费廷前置系统" style="rounded=1;whiteSpace=wrap;html=1;fillColor=#dae8fc;strokeColor=#6c8ebf;" parent="1" vertex="1">
          <mxGeometry x="180" y="220" width="490" height="60" as="geometry" />
        </mxCell>
        <mxCell id="oe8eYKHcRqLVJrgu-Rlg-3" value="ESB&lt;br&gt;（企业服务总线）" style="rounded=0;whiteSpace=wrap;html=1;fillColor=#ffe6cc;strokeColor=#d79b00;" parent="1" vertex="1">
          <mxGeometry x="320" y="320" width="350" height="50" as="geometry" />
        </mxCell>
        <mxCell id="oe8eYKHcRqLVJrgu-Rlg-4" value="" style="shape=flexArrow;endArrow=classic;html=1;rounded=0;entryX=0.5;entryY=0;entryDx=0;entryDy=0;" parent="1" target="oe8eYKHcRqLVJrgu-Rlg-3" edge="1">
          <mxGeometry width="50" height="50" relative="1" as="geometry">
            <mxPoint x="495" y="280" as="sourcePoint" />
            <mxPoint x="360" y="340" as="targetPoint" />
          </mxGeometry>
        </mxCell>
        <mxCell id="oe8eYKHcRqLVJrgu-Rlg-5" value="渠道管理平台" style="rounded=0;whiteSpace=wrap;html=1;fillColor=#d5e8d4;strokeColor=#82b366;" parent="1" vertex="1">
          <mxGeometry x="320" y="410" width="100" height="50" as="geometry" />
        </mxCell>
        <mxCell id="oe8eYKHcRqLVJrgu-Rlg-8" value="区块链服务平台" style="rounded=0;whiteSpace=wrap;html=1;fillColor=#d5e8d4;strokeColor=#82b366;" parent="1" vertex="1">
          <mxGeometry x="433.5" y="410" width="106.5" height="50" as="geometry" />
        </mxCell>
        <mxCell id="oe8eYKHcRqLVJrgu-Rlg-10" value="" style="shape=flexArrow;endArrow=classic;html=1;rounded=0;exitX=0.146;exitY=1.06;exitDx=0;exitDy=0;exitPerimeter=0;" parent="1" source="oe8eYKHcRqLVJrgu-Rlg-3" target="oe8eYKHcRqLVJrgu-Rlg-5" edge="1">
          <mxGeometry width="50" height="50" relative="1" as="geometry">
            <mxPoint x="380" y="370" as="sourcePoint" />
            <mxPoint x="520" y="220" as="targetPoint" />
          </mxGeometry>
        </mxCell>
        <mxCell id="oe8eYKHcRqLVJrgu-Rlg-12" value="" style="shape=flexArrow;endArrow=classic;html=1;rounded=0;entryX=0.5;entryY=0;entryDx=0;entryDy=0;" parent="1" target="oe8eYKHcRqLVJrgu-Rlg-8" edge="1">
          <mxGeometry width="50" height="50" relative="1" as="geometry">
            <mxPoint x="487" y="370" as="sourcePoint" />
            <mxPoint x="358.92857142857133" y="450" as="targetPoint" />
          </mxGeometry>
        </mxCell>
        <mxCell id="oe8eYKHcRqLVJrgu-Rlg-13" value="ESB&lt;br&gt;（企业服务总线）" style="rounded=0;whiteSpace=wrap;html=1;fillColor=#ffe6cc;strokeColor=#d79b00;" parent="1" vertex="1">
          <mxGeometry x="318" y="121" width="215" height="49" as="geometry" />
        </mxCell>
        <mxCell id="oe8eYKHcRqLVJrgu-Rlg-16" value="" style="shape=flexArrow;endArrow=classic;html=1;rounded=0;exitX=0.5;exitY=1;exitDx=0;exitDy=0;" parent="1" source="oe8eYKHcRqLVJrgu-Rlg-13" edge="1">
          <mxGeometry width="50" height="50" relative="1" as="geometry">
            <mxPoint x="435" y="290" as="sourcePoint" />
            <mxPoint x="425" y="220" as="targetPoint" />
          </mxGeometry>
        </mxCell>
        <mxCell id="oe8eYKHcRqLVJrgu-Rlg-17" value="" style="shape=flexArrow;endArrow=classic;html=1;rounded=0;exitX=0.5;exitY=1;exitDx=0;exitDy=0;" parent="1" edge="1">
          <mxGeometry width="50" height="50" relative="1" as="geometry">
            <mxPoint x="426" y="80" as="sourcePoint" />
            <mxPoint x="425" y="120" as="targetPoint" />
          </mxGeometry>
        </mxCell>
        <mxCell id="oe8eYKHcRqLVJrgu-Rlg-18" value="EDB&lt;br&gt;（企业数据总线）" style="rounded=0;whiteSpace=wrap;html=1;fillColor=#ffe6cc;strokeColor=#d79b00;" parent="1" vertex="1">
          <mxGeometry x="190" y="320" width="120" height="50" as="geometry" />
        </mxCell>
        <mxCell id="oe8eYKHcRqLVJrgu-Rlg-19" value="渠道管理平台" style="rounded=0;whiteSpace=wrap;html=1;fillColor=#d5e8d4;strokeColor=#82b366;" parent="1" vertex="1">
          <mxGeometry x="191" y="411" width="119" height="50" as="geometry" />
        </mxCell>
        <mxCell id="oe8eYKHcRqLVJrgu-Rlg-20" value="" style="shape=flexArrow;endArrow=classic;html=1;rounded=0;exitX=0.5;exitY=1;exitDx=0;exitDy=0;entryX=0.5;entryY=0;entryDx=0;entryDy=0;" parent="1" source="oe8eYKHcRqLVJrgu-Rlg-18" target="oe8eYKHcRqLVJrgu-Rlg-19" edge="1">
          <mxGeometry width="50" height="50" relative="1" as="geometry">
            <mxPoint x="417.5" y="380" as="sourcePoint" />
            <mxPoint x="416.2692307692307" y="420" as="targetPoint" />
          </mxGeometry>
        </mxCell>
        <mxCell id="5no84rntF3eWloE5oHz--1" value="" style="rounded=0;whiteSpace=wrap;html=1;" parent="1" vertex="1">
          <mxGeometry x="810" y="10" width="1290" height="940" as="geometry" />
        </mxCell>
        <mxCell id="5no84rntF3eWloE5oHz--4" style="edgeStyle=orthogonalEdgeStyle;rounded=0;orthogonalLoop=1;jettySize=auto;html=1;exitX=0.5;exitY=1;exitDx=0;exitDy=0;entryX=0.5;entryY=0;entryDx=0;entryDy=0;fontSize=14;" parent="1" source="5no84rntF3eWloE5oHz--2" target="5no84rntF3eWloE5oHz--3" edge="1">
          <mxGeometry relative="1" as="geometry" />
        </mxCell>
        <mxCell id="5no84rntF3eWloE5oHz--2" value="ESB" style="rounded=1;whiteSpace=wrap;html=1;fillColor=#ffe6cc;strokeColor=#d79b00;" parent="1" vertex="1">
          <mxGeometry x="960" y="100" width="180" height="60" as="geometry" />
        </mxCell>
        <mxCell id="5no84rntF3eWloE5oHz--7" style="edgeStyle=orthogonalEdgeStyle;rounded=0;orthogonalLoop=1;jettySize=auto;html=1;exitX=0.5;exitY=1;exitDx=0;exitDy=0;entryX=0.5;entryY=0;entryDx=0;entryDy=0;fontSize=24;" parent="1" source="5no84rntF3eWloE5oHz--3" target="5no84rntF3eWloE5oHz--6" edge="1">
          <mxGeometry relative="1" as="geometry" />
        </mxCell>
        <mxCell id="5no84rntF3eWloE5oHz--3" value="&lt;font style=&quot;font-size: 24px;&quot;&gt;网关&lt;/font&gt;&lt;br&gt;1.缓存请求体过滤器&lt;br&gt;2.报文适配过滤器&lt;br&gt;3.访问日志过滤器&lt;br&gt;4.报文校验过滤器" style="rounded=0;whiteSpace=wrap;html=1;fontSize=14;fillColor=#fff2cc;strokeColor=#d6b656;" parent="1" vertex="1">
          <mxGeometry x="920" y="205" width="260" height="150" as="geometry" />
        </mxCell>
        <mxCell id="5no84rntF3eWloE5oHz--16" style="edgeStyle=orthogonalEdgeStyle;rounded=0;orthogonalLoop=1;jettySize=auto;html=1;exitX=0;exitY=0.5;exitDx=0;exitDy=0;fontSize=12;" parent="1" source="5no84rntF3eWloE5oHz--5" target="5no84rntF3eWloE5oHz--3" edge="1">
          <mxGeometry relative="1" as="geometry" />
        </mxCell>
        <mxCell id="5no84rntF3eWloE5oHz--26" style="edgeStyle=orthogonalEdgeStyle;rounded=0;orthogonalLoop=1;jettySize=auto;html=1;exitX=1;exitY=0.5;exitDx=0;exitDy=0;entryX=0;entryY=0.5;entryDx=0;entryDy=0;fontSize=12;" parent="1" source="5no84rntF3eWloE5oHz--5" target="5no84rntF3eWloE5oHz--13" edge="1">
          <mxGeometry relative="1" as="geometry" />
        </mxCell>
        <mxCell id="5no84rntF3eWloE5oHz--5" value="校验&lt;br&gt;文件" style="ellipse;whiteSpace=wrap;html=1;fontSize=24;fillColor=#e1d5e7;strokeColor=#9673a6;" parent="1" vertex="1">
          <mxGeometry x="1240.5" y="250" width="110" height="60" as="geometry" />
        </mxCell>
        <mxCell id="5no84rntF3eWloE5oHz--6" value="前置服务&lt;br&gt;&lt;font style=&quot;font-size: 12px;&quot;&gt;1.ESB处理&lt;/font&gt;" style="rounded=1;whiteSpace=wrap;html=1;fontSize=24;fillColor=#dae8fc;gradientColor=#7ea6e0;strokeColor=#6c8ebf;" parent="1" vertex="1">
          <mxGeometry x="950" y="410" width="198" height="120" as="geometry" />
        </mxCell>
        <mxCell id="5no84rntF3eWloE5oHz--18" style="edgeStyle=orthogonalEdgeStyle;rounded=0;orthogonalLoop=1;jettySize=auto;html=1;exitX=1;exitY=0.5;exitDx=0;exitDy=0;entryX=0;entryY=0.5;entryDx=0;entryDy=0;entryPerimeter=0;fontSize=12;" parent="1" source="5no84rntF3eWloE5oHz--8" target="5no84rntF3eWloE5oHz--9" edge="1">
          <mxGeometry relative="1" as="geometry" />
        </mxCell>
        <mxCell id="5no84rntF3eWloE5oHz--8" value="响应体包装过滤器" style="rounded=1;whiteSpace=wrap;html=1;fontSize=12;fillColor=#b0e3e6;strokeColor=#0e8088;" parent="1" vertex="1">
          <mxGeometry x="1000" y="500" width="110" height="30" as="geometry" />
        </mxCell>
        <mxCell id="5no84rntF3eWloE5oHz--9" value="元数据" style="shape=cylinder3;whiteSpace=wrap;html=1;boundedLbl=1;backgroundOutline=1;size=15;fontSize=12;" parent="1" vertex="1">
          <mxGeometry x="1165" y="650" width="150.5" height="60" as="geometry" />
        </mxCell>
        <mxCell id="5no84rntF3eWloE5oHz--10" style="edgeStyle=orthogonalEdgeStyle;rounded=0;orthogonalLoop=1;jettySize=auto;html=1;exitX=0.5;exitY=1;exitDx=0;exitDy=0;entryX=0.5;entryY=0;entryDx=0;entryDy=0;fontSize=14;" parent="1" source="5no84rntF3eWloE5oHz--11" target="5no84rntF3eWloE5oHz--13" edge="1">
          <mxGeometry relative="1" as="geometry" />
        </mxCell>
        <mxCell id="5no84rntF3eWloE5oHz--11" value="国结" style="rounded=1;whiteSpace=wrap;html=1;fillColor=#ffe6cc;strokeColor=#d79b00;" parent="1" vertex="1">
          <mxGeometry x="1406" y="110" width="160" height="60" as="geometry" />
        </mxCell>
        <mxCell id="5no84rntF3eWloE5oHz--12" style="edgeStyle=orthogonalEdgeStyle;rounded=0;orthogonalLoop=1;jettySize=auto;html=1;exitX=0.5;exitY=1;exitDx=0;exitDy=0;entryX=0.5;entryY=0;entryDx=0;entryDy=0;fontSize=24;" parent="1" source="5no84rntF3eWloE5oHz--13" edge="1">
          <mxGeometry relative="1" as="geometry">
            <mxPoint x="1398.9999999999995" y="410" as="targetPoint" />
          </mxGeometry>
        </mxCell>
        <mxCell id="5no84rntF3eWloE5oHz--20" style="edgeStyle=orthogonalEdgeStyle;rounded=0;orthogonalLoop=1;jettySize=auto;html=1;exitX=0.5;exitY=1;exitDx=0;exitDy=0;entryX=0.5;entryY=0;entryDx=0;entryDy=0;fontSize=12;" parent="1" source="5no84rntF3eWloE5oHz--13" edge="1">
          <mxGeometry relative="1" as="geometry">
            <mxPoint x="1698.9999999999995" y="410" as="targetPoint" />
          </mxGeometry>
        </mxCell>
        <mxCell id="5no84rntF3eWloE5oHz--13" value="&lt;font style=&quot;font-size: 24px;&quot;&gt;网关&lt;/font&gt;&lt;br&gt;1.缓存请求体过滤器&lt;br&gt;2.报文适配过滤器&lt;br&gt;3.访问日志过滤器&lt;br&gt;4.报文校验过滤器" style="rounded=0;whiteSpace=wrap;html=1;fontSize=14;fillColor=#fff2cc;strokeColor=#d6b656;" parent="1" vertex="1">
          <mxGeometry x="1410" y="208" width="160" height="145" as="geometry" />
        </mxCell>
        <mxCell id="5no84rntF3eWloE5oHz--15" value="响应体包装过滤器" style="rounded=1;whiteSpace=wrap;html=1;fontSize=12;fillColor=#b0e3e6;strokeColor=#0e8088;" parent="1" vertex="1">
          <mxGeometry x="1654" y="580" width="110" height="30" as="geometry" />
        </mxCell>
        <mxCell id="5no84rntF3eWloE5oHz--21" value="&lt;font style=&quot;font-size: 24px;&quot;&gt;网关&lt;/font&gt;&lt;br&gt;1.缓存请求体过滤器&lt;br&gt;2.报文适配过滤器&lt;br&gt;3.访问日志过滤器&lt;br&gt;" style="rounded=0;whiteSpace=wrap;html=1;fontSize=14;fillColor=#fff2cc;strokeColor=#d6b656;" parent="1" vertex="1">
          <mxGeometry x="1590" y="210" width="170" height="140" as="geometry" />
        </mxCell>
        <mxCell id="5no84rntF3eWloE5oHz--23" value="发" style="text;html=1;strokeColor=none;fillColor=none;align=center;verticalAlign=middle;whiteSpace=wrap;rounded=0;fontSize=12;" parent="1" vertex="1">
          <mxGeometry x="1490" y="170" width="60" height="30" as="geometry" />
        </mxCell>
        <mxCell id="5no84rntF3eWloE5oHz--24" value="收" style="text;html=1;strokeColor=none;fillColor=none;align=center;verticalAlign=middle;whiteSpace=wrap;rounded=0;fontSize=12;" parent="1" vertex="1">
          <mxGeometry x="1620" y="175" width="60" height="30" as="geometry" />
        </mxCell>
        <mxCell id="5no84rntF3eWloE5oHz--29" style="edgeStyle=orthogonalEdgeStyle;rounded=0;orthogonalLoop=1;jettySize=auto;html=1;exitX=0.5;exitY=1;exitDx=0;exitDy=0;entryX=1;entryY=1;entryDx=0;entryDy=0;fontSize=12;" parent="1" source="5no84rntF3eWloE5oHz--27" target="5no84rntF3eWloE5oHz--24" edge="1">
          <mxGeometry relative="1" as="geometry" />
        </mxCell>
        <mxCell id="5no84rntF3eWloE5oHz--27" value="人行" style="rounded=1;whiteSpace=wrap;html=1;fillColor=#ffe6cc;strokeColor=#d79b00;" parent="1" vertex="1">
          <mxGeometry x="1600" y="110" width="160" height="60" as="geometry" />
        </mxCell>
        <mxCell id="5no84rntF3eWloE5oHz--30" value="&lt;font style=&quot;&quot;&gt;&lt;span style=&quot;font-size: 24px;&quot;&gt;前置服务（发）&lt;/span&gt;&lt;br&gt;&lt;font size=&quot;3&quot;&gt;1.&lt;/font&gt;&lt;br&gt;&lt;br&gt;&lt;/font&gt;" style="rounded=0;whiteSpace=wrap;html=1;fontSize=12;fillColor=#dae8fc;gradientColor=#7ea6e0;strokeColor=#6c8ebf;" parent="1" vertex="1">
          <mxGeometry x="1315.5" y="410" width="170" height="120" as="geometry" />
        </mxCell>
        <mxCell id="5no84rntF3eWloE5oHz--31" value="&lt;font style=&quot;&quot;&gt;&lt;span style=&quot;font-size: 24px;&quot;&gt;前置服务（收）&lt;/span&gt;&lt;br&gt;&lt;font size=&quot;3&quot;&gt;1.&lt;/font&gt;&lt;br&gt;&lt;br&gt;&lt;/font&gt;" style="rounded=0;whiteSpace=wrap;html=1;fontSize=12;fillColor=#dae8fc;gradientColor=#7ea6e0;strokeColor=#6c8ebf;" parent="1" vertex="1">
          <mxGeometry x="1620" y="410" width="170" height="120" as="geometry" />
        </mxCell>
        <mxCell id="MoQdFORaN9ekwdwduYrV-1" value="新一代国际结算系统" style="rounded=0;whiteSpace=wrap;html=1;fillColor=#d5e8d4;strokeColor=#82b366;" vertex="1" parent="1">
          <mxGeometry x="558" y="411" width="112" height="50" as="geometry" />
        </mxCell>
        <mxCell id="MoQdFORaN9ekwdwduYrV-2" value="" style="shape=flexArrow;endArrow=classic;html=1;rounded=0;entryX=0.5;entryY=0;entryDx=0;entryDy=0;" edge="1" parent="1">
          <mxGeometry width="50" height="50" relative="1" as="geometry">
            <mxPoint x="610.25" y="371" as="sourcePoint" />
            <mxPoint x="610" y="411" as="targetPoint" />
          </mxGeometry>
        </mxCell>
        <mxCell id="MoQdFORaN9ekwdwduYrV-3" value="" style="rounded=0;whiteSpace=wrap;html=1;" vertex="1" parent="1">
          <mxGeometry x="180" y="25" width="490" height="55" as="geometry" />
        </mxCell>
        <mxCell id="MoQdFORaN9ekwdwduYrV-4" value="&lt;p style=&quot;margin: 0pt 0pt 0.0001pt; text-align: justify; font-family: &amp;quot;Times New Roman&amp;quot;; font-size: 10.5pt;&quot; class=&quot;MsoNormal&quot;&gt;&lt;span style=&quot;font-family: &amp;quot;Courier New&amp;quot;; font-size: 10.5pt;&quot;&gt;&lt;font face=&quot;宋体&quot;&gt;支付系统开放&lt;/font&gt;&lt;/span&gt;&lt;span style=&quot;font-family: 宋体; font-size: 10.5pt;&quot;&gt;接入&lt;/span&gt;&lt;span style=&quot;font-family: &amp;quot;Courier New&amp;quot;; font-size: 10.5pt;&quot;&gt;&lt;font face=&quot;宋体&quot;&gt;服务&lt;/font&gt;&lt;/span&gt;&lt;/p&gt;" style="rounded=0;whiteSpace=wrap;html=1;fillColor=#b0e3e6;strokeColor=#0e8088;" vertex="1" parent="1">
          <mxGeometry x="350.5" y="33" width="150" height="40" as="geometry" />
        </mxCell>
        <mxCell id="MoQdFORaN9ekwdwduYrV-5" value="行外" style="text;html=1;strokeColor=none;fillColor=none;align=center;verticalAlign=middle;whiteSpace=wrap;rounded=0;" vertex="1" parent="1">
          <mxGeometry x="210" y="40" width="60" height="30" as="geometry" />
        </mxCell>
      </root>
    </mxGraphModel>
  </diagram>
</mxfile>
